<mxfile host="app.diagrams.net" agent="Mozilla/5.0 (Macintosh; Intel Mac OS X 10_15_7) AppleWebKit/537.36 (KHTML, like Gecko) Chrome/130.0.0.0 Safari/537.36" version="24.8.3">
  <diagram name="Page-1" id="3QL8FXSqD4Fd19UrLOuW">
    <mxGraphModel grid="1" page="1" gridSize="10" guides="1" tooltips="1" connect="1" arrows="1" fold="1" pageScale="1" pageWidth="827" pageHeight="1169" math="0" shadow="0">
      <root>
        <mxCell id="0" />
        <mxCell id="1" parent="0" />
        <mxCell id="xXOGGeI_By0o-UIUCpFz-39" style="edgeStyle=orthogonalEdgeStyle;rounded=0;orthogonalLoop=1;jettySize=auto;html=1;" edge="1" parent="1" source="xXOGGeI_By0o-UIUCpFz-1">
          <mxGeometry relative="1" as="geometry">
            <mxPoint x="510" y="530" as="targetPoint" />
          </mxGeometry>
        </mxCell>
        <mxCell id="xXOGGeI_By0o-UIUCpFz-1" value="TransactionLogs" style="swimlane;whiteSpace=wrap;html=1;" vertex="1" parent="1">
          <mxGeometry x="20" y="500" width="200" height="200" as="geometry" />
        </mxCell>
        <mxCell id="xXOGGeI_By0o-UIUCpFz-2" value="transactionType: enum" style="text;html=1;align=center;verticalAlign=middle;resizable=0;points=[];autosize=1;strokeColor=none;fillColor=none;" vertex="1" parent="xXOGGeI_By0o-UIUCpFz-1">
          <mxGeometry x="10" y="30" width="140" height="30" as="geometry" />
        </mxCell>
        <mxCell id="xXOGGeI_By0o-UIUCpFz-3" value="transactionStatus: enum" style="text;html=1;align=center;verticalAlign=middle;whiteSpace=wrap;rounded=0;" vertex="1" parent="xXOGGeI_By0o-UIUCpFz-1">
          <mxGeometry x="10" y="50" width="140" height="30" as="geometry" />
        </mxCell>
        <mxCell id="xXOGGeI_By0o-UIUCpFz-4" value="customerId: int" style="text;html=1;align=center;verticalAlign=middle;whiteSpace=wrap;rounded=0;" vertex="1" parent="xXOGGeI_By0o-UIUCpFz-1">
          <mxGeometry x="10" y="70" width="120" height="30" as="geometry" />
        </mxCell>
        <mxCell id="xXOGGeI_By0o-UIUCpFz-5" value="atmId: int" style="text;html=1;align=center;verticalAlign=middle;whiteSpace=wrap;rounded=0;" vertex="1" parent="xXOGGeI_By0o-UIUCpFz-1">
          <mxGeometry x="30" y="90" width="60" height="30" as="geometry" />
        </mxCell>
        <mxCell id="xXOGGeI_By0o-UIUCpFz-6" value="isSuccess: boolean" style="text;html=1;align=center;verticalAlign=middle;whiteSpace=wrap;rounded=0;" vertex="1" parent="xXOGGeI_By0o-UIUCpFz-1">
          <mxGeometry x="10" y="110" width="130" height="30" as="geometry" />
        </mxCell>
        <mxCell id="xXOGGeI_By0o-UIUCpFz-7" value="failedStatus: enum" style="text;html=1;align=center;verticalAlign=middle;whiteSpace=wrap;rounded=0;" vertex="1" parent="xXOGGeI_By0o-UIUCpFz-1">
          <mxGeometry y="130" width="140" height="30" as="geometry" />
        </mxCell>
        <mxCell id="xXOGGeI_By0o-UIUCpFz-16" style="edgeStyle=orthogonalEdgeStyle;rounded=0;orthogonalLoop=1;jettySize=auto;html=1;entryX=0.5;entryY=0;entryDx=0;entryDy=0;" edge="1" parent="1" source="xXOGGeI_By0o-UIUCpFz-8" target="xXOGGeI_By0o-UIUCpFz-1">
          <mxGeometry relative="1" as="geometry" />
        </mxCell>
        <mxCell id="xXOGGeI_By0o-UIUCpFz-30" style="edgeStyle=orthogonalEdgeStyle;rounded=0;orthogonalLoop=1;jettySize=auto;html=1;entryX=0.25;entryY=0;entryDx=0;entryDy=0;" edge="1" parent="1" source="xXOGGeI_By0o-UIUCpFz-8" target="xXOGGeI_By0o-UIUCpFz-26">
          <mxGeometry relative="1" as="geometry">
            <Array as="points">
              <mxPoint x="560" y="170" />
            </Array>
          </mxGeometry>
        </mxCell>
        <mxCell id="xXOGGeI_By0o-UIUCpFz-8" value="BaseEntity" style="swimlane;whiteSpace=wrap;html=1;" vertex="1" parent="1">
          <mxGeometry x="300" y="10" width="200" height="150" as="geometry" />
        </mxCell>
        <mxCell id="xXOGGeI_By0o-UIUCpFz-9" value="id: int" style="text;html=1;align=center;verticalAlign=middle;whiteSpace=wrap;rounded=0;" vertex="1" parent="xXOGGeI_By0o-UIUCpFz-8">
          <mxGeometry x="54" y="30" width="60" height="30" as="geometry" />
        </mxCell>
        <mxCell id="xXOGGeI_By0o-UIUCpFz-12" value="createdDate:date" style="text;html=1;align=center;verticalAlign=middle;whiteSpace=wrap;rounded=0;" vertex="1" parent="xXOGGeI_By0o-UIUCpFz-8">
          <mxGeometry x="39" y="50" width="90" height="30" as="geometry" />
        </mxCell>
        <mxCell id="xXOGGeI_By0o-UIUCpFz-13" value="updatedDate: date" style="text;html=1;align=center;verticalAlign=middle;whiteSpace=wrap;rounded=0;" vertex="1" parent="xXOGGeI_By0o-UIUCpFz-8">
          <mxGeometry x="31" y="70" width="106" height="30" as="geometry" />
        </mxCell>
        <mxCell id="xXOGGeI_By0o-UIUCpFz-14" value="createdBy:String" style="text;html=1;align=center;verticalAlign=middle;whiteSpace=wrap;rounded=0;" vertex="1" parent="xXOGGeI_By0o-UIUCpFz-8">
          <mxGeometry x="31" y="90" width="120" height="30" as="geometry" />
        </mxCell>
        <mxCell id="xXOGGeI_By0o-UIUCpFz-15" value="updatedBy: String" style="text;html=1;align=center;verticalAlign=middle;whiteSpace=wrap;rounded=0;" vertex="1" parent="xXOGGeI_By0o-UIUCpFz-8">
          <mxGeometry x="45" y="120" width="110" height="30" as="geometry" />
        </mxCell>
        <mxCell id="xXOGGeI_By0o-UIUCpFz-17" value="extends" style="text;html=1;align=center;verticalAlign=middle;whiteSpace=wrap;rounded=0;" vertex="1" parent="1">
          <mxGeometry x="150" y="80" width="60" height="30" as="geometry" />
        </mxCell>
        <mxCell id="xXOGGeI_By0o-UIUCpFz-18" value="VideoLog" style="swimlane;whiteSpace=wrap;html=1;" vertex="1" parent="1">
          <mxGeometry x="600" y="140" width="200" height="200" as="geometry" />
        </mxCell>
        <mxCell id="xXOGGeI_By0o-UIUCpFz-21" value="documentType: enum" style="text;html=1;align=center;verticalAlign=middle;whiteSpace=wrap;rounded=0;" vertex="1" parent="xXOGGeI_By0o-UIUCpFz-18">
          <mxGeometry x="20" y="25" width="140" height="30" as="geometry" />
        </mxCell>
        <mxCell id="xXOGGeI_By0o-UIUCpFz-22" value="documentUrl: string" style="text;html=1;align=center;verticalAlign=middle;whiteSpace=wrap;rounded=0;" vertex="1" parent="xXOGGeI_By0o-UIUCpFz-18">
          <mxGeometry x="20" y="55" width="140" height="30" as="geometry" />
        </mxCell>
        <mxCell id="xXOGGeI_By0o-UIUCpFz-23" value="atmId: int" style="text;html=1;align=center;verticalAlign=middle;whiteSpace=wrap;rounded=0;" vertex="1" parent="xXOGGeI_By0o-UIUCpFz-18">
          <mxGeometry x="60" y="85" width="60" height="30" as="geometry" />
        </mxCell>
        <mxCell id="xXOGGeI_By0o-UIUCpFz-24" value="deviceId: String" style="text;html=1;align=center;verticalAlign=middle;whiteSpace=wrap;rounded=0;" vertex="1" parent="xXOGGeI_By0o-UIUCpFz-18">
          <mxGeometry x="32.5" y="115" width="115" height="30" as="geometry" />
        </mxCell>
        <mxCell id="xXOGGeI_By0o-UIUCpFz-20" value="extends" style="text;html=1;align=center;verticalAlign=middle;whiteSpace=wrap;rounded=0;" vertex="1" parent="1">
          <mxGeometry x="550" y="80" width="60" height="30" as="geometry" />
        </mxCell>
        <mxCell id="xXOGGeI_By0o-UIUCpFz-25" value="Atm" style="swimlane;whiteSpace=wrap;html=1;" vertex="1" parent="1">
          <mxGeometry x="200" y="270" width="200" height="200" as="geometry" />
        </mxCell>
        <mxCell id="xXOGGeI_By0o-UIUCpFz-35" value="bankName: string" style="text;html=1;align=center;verticalAlign=middle;whiteSpace=wrap;rounded=0;" vertex="1" parent="xXOGGeI_By0o-UIUCpFz-25">
          <mxGeometry x="55" y="68" width="100" height="30" as="geometry" />
        </mxCell>
        <mxCell id="xXOGGeI_By0o-UIUCpFz-36" value="location: strng" style="text;html=1;align=center;verticalAlign=middle;whiteSpace=wrap;rounded=0;" vertex="1" parent="xXOGGeI_By0o-UIUCpFz-25">
          <mxGeometry x="60" y="98" width="90" height="30" as="geometry" />
        </mxCell>
        <mxCell id="xXOGGeI_By0o-UIUCpFz-34" value="name: string" style="text;html=1;align=center;verticalAlign=middle;resizable=0;points=[];autosize=1;strokeColor=none;fillColor=none;" vertex="1" parent="xXOGGeI_By0o-UIUCpFz-25">
          <mxGeometry x="60" y="38" width="90" height="30" as="geometry" />
        </mxCell>
        <mxCell id="xXOGGeI_By0o-UIUCpFz-26" value="customer" style="swimlane;whiteSpace=wrap;html=1;" vertex="1" parent="1">
          <mxGeometry x="510" y="410" width="200" height="200" as="geometry" />
        </mxCell>
        <mxCell id="xXOGGeI_By0o-UIUCpFz-27" value="name: string" style="text;html=1;align=center;verticalAlign=middle;whiteSpace=wrap;rounded=0;" vertex="1" parent="xXOGGeI_By0o-UIUCpFz-26">
          <mxGeometry x="50" y="40" width="100" height="30" as="geometry" />
        </mxCell>
        <mxCell id="xXOGGeI_By0o-UIUCpFz-28" value="bankDetails: string" style="text;html=1;align=center;verticalAlign=middle;whiteSpace=wrap;rounded=0;" vertex="1" parent="xXOGGeI_By0o-UIUCpFz-26">
          <mxGeometry x="40" y="60" width="120" height="30" as="geometry" />
        </mxCell>
        <mxCell id="xXOGGeI_By0o-UIUCpFz-29" value="cardDetails: string" style="text;html=1;align=center;verticalAlign=middle;whiteSpace=wrap;rounded=0;" vertex="1" parent="xXOGGeI_By0o-UIUCpFz-26">
          <mxGeometry x="40" y="85" width="130" height="30" as="geometry" />
        </mxCell>
        <mxCell id="xXOGGeI_By0o-UIUCpFz-31" value="extends" style="text;html=1;align=center;verticalAlign=middle;whiteSpace=wrap;rounded=0;" vertex="1" parent="1">
          <mxGeometry x="490" y="290" width="60" height="30" as="geometry" />
        </mxCell>
        <mxCell id="xXOGGeI_By0o-UIUCpFz-33" value="extends" style="text;html=1;align=center;verticalAlign=middle;whiteSpace=wrap;rounded=0;" vertex="1" parent="1">
          <mxGeometry x="300" y="180" width="60" height="30" as="geometry" />
        </mxCell>
        <mxCell id="xXOGGeI_By0o-UIUCpFz-37" style="edgeStyle=orthogonalEdgeStyle;rounded=0;orthogonalLoop=1;jettySize=auto;html=1;entryX=0.435;entryY=0.005;entryDx=0;entryDy=0;entryPerimeter=0;" edge="1" parent="1" source="xXOGGeI_By0o-UIUCpFz-8" target="xXOGGeI_By0o-UIUCpFz-25">
          <mxGeometry relative="1" as="geometry" />
        </mxCell>
        <mxCell id="xXOGGeI_By0o-UIUCpFz-40" value="n" style="text;html=1;align=center;verticalAlign=middle;resizable=0;points=[];autosize=1;strokeColor=none;fillColor=none;" vertex="1" parent="1">
          <mxGeometry x="225" y="578" width="30" height="30" as="geometry" />
        </mxCell>
        <mxCell id="xXOGGeI_By0o-UIUCpFz-41" value="1" style="text;html=1;align=center;verticalAlign=middle;whiteSpace=wrap;rounded=0;" vertex="1" parent="1">
          <mxGeometry x="450" y="500" width="60" height="30" as="geometry" />
        </mxCell>
        <mxCell id="xXOGGeI_By0o-UIUCpFz-42" style="edgeStyle=orthogonalEdgeStyle;rounded=0;orthogonalLoop=1;jettySize=auto;html=1;entryX=0.65;entryY=0;entryDx=0;entryDy=0;entryPerimeter=0;" edge="1" parent="1" source="xXOGGeI_By0o-UIUCpFz-8" target="xXOGGeI_By0o-UIUCpFz-18">
          <mxGeometry relative="1" as="geometry" />
        </mxCell>
      </root>
    </mxGraphModel>
  </diagram>
</mxfile>
